<?xml version="1.0" standalone="no"?>
<!DOCTYPE svg PUBLIC "-//W3C//DTD SVG 20010904//EN"
 "http://www.w3.org/TR/2001/REC-SVG-20010904/DTD/svg10.dtd">
<svg version="1.0" xmlns="http://www.w3.org/2000/svg"
 width="700.000000pt" height="700.000000pt" viewBox="0 0 700.000000 700.000000"
 preserveAspectRatio="xMidYMid meet">
<metadata>
Created by potrace 1.11, written by Peter Selinger 2001-2013
</metadata>
<g transform="translate(0.000000,700.000000) scale(0.100000,-0.100000)"
fill="#000000" stroke="none">
<path d="M4689 6340 c-20 -5 -47 -11 -60 -14 -71 -13 -706 -147 -719 -151 -8
-3 -31 -31 -52 -62 -20 -32 -77 -121 -127 -197 -50 -77 -91 -142 -91 -145 0
-4 62 -47 137 -96 76 -50 220 -144 320 -210 100 -66 190 -125 200 -131 15 -9
10 -14 -38 -31 -322 -121 -610 -355 -805 -654 -87 -134 -197 -387 -219 -506
-3 -15 -8 -41 -11 -58 -50 -257 -41 -528 26 -771 37 -136 140 -373 167 -381
27 -9 167 237 213 374 27 81 29 97 20 135 -6 24 -13 59 -16 78 -3 19 -10 55
-14 80 -5 25 -8 95 -8 155 -1 528 341 1004 838 1167 156 52 228 63 405 63 333
-1 623 -122 860 -360 233 -234 351 -510 360 -840 8 -303 -84 -573 -276 -811
-170 -210 -398 -352 -676 -421 -95 -24 -128 -27 -273 -27 -120 0 -187 4 -244
17 -43 9 -79 17 -81 17 -1 0 -25 -38 -54 -85 -29 -47 -83 -127 -121 -177 -38
-51 -66 -96 -62 -100 8 -7 170 -55 217 -63 17 -2 41 -7 55 -10 160 -34 414
-30 625 9 65 12 237 67 312 100 254 112 487 290 635 485 24 31 50 64 59 74 27
30 122 197 160 282 49 108 94 248 120 375 24 119 34 381 18 490 -5 36 -11 79
-14 95 -28 208 -171 544 -298 701 -138 170 -215 247 -352 350 -104 77 -231
149 -368 205 -48 21 -91 37 -95 38 -4 1 -30 8 -58 16 -156 45 -267 60 -452 60
-108 0 -141 3 -138 12 5 12 128 201 343 527 l92 140 -197 129 c-108 72 -204
131 -212 133 -8 1 -31 -2 -51 -6z"/>
<path d="M2339 5686 c-2 -2 -33 -7 -69 -10 -272 -29 -619 -157 -862 -319 -481
-322 -785 -793 -883 -1367 -19 -108 -27 -406 -15 -520 76 -688 493 -1292 1100
-1593 160 -80 311 -136 440 -162 8 -2 49 -10 90 -19 130 -27 229 -34 415 -30
99 2 192 5 207 8 69 11 114 19 128 21 200 42 334 87 505 170 610 296 1024 870
1122 1555 4 30 7 152 7 270 -1 209 -7 268 -48 460 -15 70 -94 290 -135 375
l-46 97 -65 -50 c-122 -93 -230 -223 -299 -358 -39 -76 -39 -77 -24 -118 39
-110 57 -239 58 -411 0 -173 -2 -192 -30 -325 -94 -446 -430 -845 -865 -1029
-86 -36 -224 -76 -300 -87 -19 -3 -57 -9 -85 -14 -88 -15 -349 -4 -455 19
-320 71 -578 217 -785 444 -178 195 -323 483 -359 717 -3 19 -8 46 -11 60 -11
46 -13 304 -4 370 5 36 11 79 14 95 15 108 58 240 121 372 193 406 607 723
1039 797 17 3 52 10 80 15 79 15 368 7 460 -13 186 -40 332 -96 479 -185 48
-29 89 -51 90 -49 54 80 196 230 301 316 44 36 84 69 88 73 17 13 -225 170
-364 236 -96 45 -241 98 -349 126 -96 26 -110 28 -235 48 -64 10 -448 23 -456
15z"/>
<path d="M542 832 c-30 -23 -40 -83 -18 -116 29 -46 123 -44 141 2 10 26 -11
36 -28 12 -19 -27 -61 -35 -81 -14 -25 25 -21 81 9 100 23 15 65 12 65 -6 0
-12 29 -20 35 -10 3 5 -3 18 -15 30 -25 25 -77 26 -108 2z"/>
<path d="M1093 843 c-7 -3 -13 -11 -13 -18 0 -7 -6 -16 -12 -19 -10 -5 -10 -7
0 -12 6 -3 12 -23 12 -44 0 -21 3 -45 6 -54 7 -17 54 -22 54 -6 0 6 -7 10 -15
10 -11 0 -15 12 -15 45 0 33 4 45 15 45 8 0 15 5 15 10 0 6 -6 10 -14 10 -8 0
-16 8 -18 18 -2 11 -9 17 -15 15z"/>
<path d="M1400 818 c0 -25 -3 -29 -12 -20 -18 18 -53 15 -71 -6 -23 -25 -21
-68 3 -92 22 -22 66 -27 73 -7 4 10 6 10 6 0 1 -7 8 -13 16 -13 12 0 15 16 15
85 0 69 -3 85 -15 85 -10 0 -15 -10 -15 -32z m-10 -47 c15 -30 12 -49 -11 -61
-25 -14 -49 2 -49 34 0 43 41 61 60 27z"/>
<path d="M1530 767 l0 -84 49 -1 c55 -1 68 8 77 55 8 43 -26 78 -67 69 -26 -5
-29 -3 -29 19 0 16 -6 25 -15 25 -12 0 -15 -16 -15 -83z m88 11 c30 -30 -2
-93 -36 -71 -21 13 -27 50 -12 69 15 17 32 18 48 2z"/>
<path d="M1890 765 l0 -85 60 0 c45 0 60 4 60 14 0 10 -12 14 -45 12 l-45 -2
-1 55 c-1 31 -1 64 0 74 1 9 -4 17 -13 17 -13 0 -16 -15 -16 -85z"/>
<path d="M2750 765 l0 -85 60 0 c45 0 60 4 60 14 0 10 -12 14 -42 13 l-43 -2
-3 73 c-2 55 -6 72 -17 72 -12 0 -15 -17 -15 -85z"/>
<path d="M2900 840 c0 -5 7 -10 15 -10 8 0 15 5 15 10 0 6 -7 10 -15 10 -8 0
-15 -4 -15 -10z"/>
<path d="M690 744 c0 -50 3 -64 15 -64 11 0 15 12 15 44 0 37 5 48 27 64 l26
19 -41 0 -42 0 0 -63z"/>
<path d="M790 790 c-11 -11 -20 -31 -20 -45 0 -53 69 -85 105 -49 22 22 11 30
-20 14 -20 -11 -27 -11 -40 0 -26 22 -16 31 30 27 41 -3 45 -2 45 18 0 49 -64
71 -100 35z m68 -17 c2 -9 -7 -13 -28 -13 -28 0 -31 2 -20 15 15 18 41 16 48
-2z"/>
<path d="M929 790 c-23 -19 -23 -19 -3 -20 11 0 25 5 31 11 13 13 43 5 43 -10
0 -5 -18 -12 -40 -16 -27 -4 -41 -13 -45 -26 -11 -33 11 -48 69 -46 l53 1 -5
51 c-2 27 -9 56 -14 63 -15 18 -63 15 -89 -8z m71 -64 c0 -18 -39 -31 -52 -18
-15 15 0 32 28 32 14 0 24 -6 24 -14z"/>
<path d="M1180 788 c-25 -28 -26 -62 0 -88 24 -24 63 -26 84 -4 25 24 9 35
-24 16 -27 -15 -32 -15 -40 -2 -13 21 -12 31 3 29 6 -1 29 -1 49 0 31 1 36 4
31 19 -19 53 -68 68 -103 30z m68 -15 c2 -9 -7 -13 -27 -13 -23 0 -29 4 -24
16 6 17 44 15 51 -3z"/>
<path d="M1675 793 c4 -10 15 -42 25 -70 19 -52 19 -53 -1 -63 -24 -14 -25
-30 0 -30 25 0 35 14 65 94 30 79 31 86 12 86 -12 0 -23 -23 -32 -68 -4 -23
-13 -26 -20 -6 -18 57 -28 74 -41 74 -10 0 -13 -6 -8 -17z"/>
<path d="M2052 797 c-20 -24 -25 -66 -9 -90 18 -28 69 -34 92 -11 22 22 11 30
-20 14 -20 -11 -27 -11 -40 0 -25 21 -17 28 33 27 41 0 47 2 44 19 -9 46 -74
73 -100 41z m66 -24 c2 -9 -7 -13 -28 -13 -28 0 -31 2 -20 15 15 18 41 16 48
-2z"/>
<path d="M2170 744 c0 -50 3 -64 15 -64 11 0 15 12 15 49 0 35 4 51 16 55 26
10 34 -3 34 -55 0 -37 4 -49 15 -49 11 0 15 12 15 49 0 52 8 65 34 55 12 -4
16 -20 16 -55 0 -37 4 -49 15 -49 18 0 21 80 5 111 -11 20 -54 26 -65 9 -4 -7
-11 -8 -18 -2 -7 5 -31 10 -54 9 l-43 0 0 -63z"/>
<path d="M2400 790 c-11 -11 -20 -31 -20 -45 0 -14 9 -34 20 -45 11 -11 31
-20 45 -20 14 0 34 9 45 20 11 11 20 31 20 45 0 14 -9 34 -20 45 -11 11 -31
20 -45 20 -14 0 -34 -9 -45 -20z m68 -12 c30 -30 -2 -93 -36 -71 -21 13 -27
50 -12 69 15 17 32 18 48 2z"/>
<path d="M2530 744 c0 -50 3 -64 15 -64 11 0 15 12 15 49 0 35 4 51 16 55 26
10 34 -3 34 -55 0 -37 4 -49 15 -49 11 0 15 13 15 54 0 63 -10 74 -67 73 l-43
0 0 -63z"/>
<path d="M2900 745 c0 -51 3 -65 15 -65 12 0 15 14 15 65 0 51 -3 65 -15 65
-12 0 -15 -14 -15 -65z"/>
<path d="M2950 756 c0 -63 10 -74 68 -73 l42 0 0 63 c0 50 -3 64 -15 64 -11 0
-15 -12 -15 -49 0 -35 -4 -51 -16 -55 -26 -10 -34 3 -34 55 0 37 -4 49 -15 49
-11 0 -15 -13 -15 -54z"/>
<path d="M533 573 c-4 -10 -11 -22 -17 -26 -8 -6 -7 -10 2 -14 7 -3 12 -25 12
-59 0 -41 4 -54 15 -54 11 0 15 13 15 54 0 34 5 56 13 59 9 4 8 8 -3 16 -12 9
-12 11 3 17 9 3 14 10 11 15 -9 16 -44 10 -51 -8z"/>
<path d="M1120 505 c0 -69 3 -85 15 -85 12 0 15 14 15 62 l0 61 40 -61 c56
-88 70 -83 70 23 0 69 -3 85 -15 85 -12 0 -15 -14 -15 -62 l0 -61 -40 61 c-56
88 -70 83 -70 -23z"/>
<path d="M1800 505 c0 -69 3 -85 15 -85 10 0 15 11 15 35 0 35 0 35 45 35 50
0 72 23 59 63 -10 31 -22 37 -81 37 l-53 0 0 -85z m88 59 c17 -3 22 -10 20
-27 -2 -18 -11 -23 -40 -25 -36 -3 -38 -2 -38 26 0 30 12 35 58 26z"/>
<path d="M2200 580 c0 -5 7 -10 15 -10 8 0 15 5 15 10 0 6 -7 10 -15 10 -8 0
-15 -4 -15 -10z"/>
<path d="M2563 583 c-7 -3 -13 -11 -13 -18 0 -7 -6 -16 -12 -18 -10 -4 -10 -7
-1 -14 6 -5 13 -31 15 -58 3 -46 5 -50 31 -53 29 -4 37 12 12 22 -10 3 -15 19
-15 46 0 29 4 40 15 40 8 0 15 5 15 10 0 6 -6 10 -14 10 -8 0 -16 8 -18 18 -2
11 -9 17 -15 15z"/>
<path d="M600 484 c0 -49 3 -64 14 -64 11 0 16 14 18 47 2 38 8 50 26 59 28
14 19 21 -25 22 l-33 1 0 -65z"/>
<path d="M700 530 c-11 -11 -20 -31 -20 -45 0 -14 9 -34 20 -45 11 -11 31 -20
45 -20 14 0 34 9 45 20 11 11 20 31 20 45 0 14 -9 34 -20 45 -11 11 -31 20
-45 20 -14 0 -34 -9 -45 -20z m70 -14 c28 -34 -11 -94 -44 -67 -21 18 -20 57
2 70 23 14 28 13 42 -3z"/>
<path d="M830 485 c0 -51 3 -65 15 -65 11 0 15 12 15 49 0 35 4 51 16 55 26
10 34 -3 34 -55 0 -37 4 -49 15 -49 11 0 15 12 15 49 0 35 4 51 16 55 26 10
34 -3 34 -55 0 -37 4 -49 15 -49 19 0 21 100 3 118 -14 14 -54 16 -63 2 -4 -6
-13 -5 -25 3 -16 9 -24 9 -40 -1 -12 -7 -20 -8 -20 -2 0 5 -7 10 -15 10 -12 0
-15 -14 -15 -65z"/>
<path d="M1310 530 c-11 -11 -20 -31 -20 -45 0 -14 9 -34 20 -45 11 -11 31
-20 45 -20 14 0 34 9 45 20 11 11 20 31 20 45 0 14 -9 34 -20 45 -11 11 -31
20 -45 20 -14 0 -34 -9 -45 -20z m68 -12 c30 -30 -2 -93 -36 -71 -21 13 -27
50 -12 69 15 17 32 18 48 2z"/>
<path d="M1440 504 c0 -68 11 -82 65 -82 l45 1 0 64 c0 49 -3 63 -15 63 -10 0
-14 -12 -13 -46 0 -29 -4 -49 -13 -55 -25 -16 -34 -3 -37 49 -2 37 -7 52 -18
52 -10 0 -14 -12 -14 -46z"/>
<path d="M1580 485 c0 -51 3 -65 15 -65 11 0 15 12 15 49 0 35 4 51 16 55 26
10 34 -3 34 -55 0 -38 4 -49 15 -49 13 0 15 11 13 56 -3 66 -23 88 -58 66 -12
-7 -20 -8 -20 -2 0 5 -7 10 -15 10 -12 0 -15 -14 -15 -65z"/>
<path d="M1960 484 c0 -49 3 -64 14 -64 11 0 16 14 18 47 2 39 7 50 28 60 14
7 23 13 20 14 -3 1 -22 3 -42 4 l-38 4 0 -65z"/>
<path d="M2080 543 c-63 -23 -43 -123 25 -123 14 0 34 9 45 20 50 50 -2 127
-70 103z m48 -25 c32 -32 1 -89 -37 -68 -26 13 -28 55 -3 69 22 13 26 13 40
-1z"/>
<path d="M2200 471 c0 -54 -4 -81 -12 -84 -7 -2 -9 -8 -5 -13 4 -4 16 -3 25 2
24 16 31 174 7 174 -12 0 -15 -15 -15 -79z"/>
<path d="M2270 530 c-11 -11 -20 -31 -20 -45 0 -53 69 -85 105 -49 22 22 11
30 -20 14 -20 -11 -27 -11 -40 0 -25 21 -17 29 27 27 34 -2 43 2 46 16 5 25
-26 57 -55 57 -12 0 -32 -9 -43 -20z m68 -17 c2 -9 -7 -13 -27 -13 -31 0 -42
14 -18 23 19 8 40 3 45 -10z"/>
<path d="M2410 530 c-41 -41 -13 -110 46 -110 19 0 54 28 54 43 0 13 -23 7
-35 -9 -18 -26 -57 -1 -53 33 4 34 35 54 51 33 16 -20 37 -23 37 -5 0 35 -69
46 -100 15z"/>
</g>
</svg>
